<?xml version="1.0" encoding="UTF-8" standalone="no"?>
<!-- Created with Inkscape (http://www.inkscape.org/) -->

<svg
   xmlns:dc="http://purl.org/dc/elements/1.1/"
   xmlns:cc="http://creativecommons.org/ns#"
   xmlns:rdf="http://www.w3.org/1999/02/22-rdf-syntax-ns#"
   xmlns:svg="http://www.w3.org/2000/svg"
   xmlns="http://www.w3.org/2000/svg"
   xmlns:sodipodi="http://sodipodi.sourceforge.net/DTD/sodipodi-0.dtd"
   xmlns:inkscape="http://www.inkscape.org/namespaces/inkscape"
   sodipodi:docname="view-workspaces-symbolic.svg"
   height="16"
   id="svg7384"
   inkscape:version="0.48.4 r9939"
   version="1.1"
   width="16">
  <metadata
     id="metadata90">
    <rdf:RDF>
      <cc:Work
         rdf:about="">
        <dc:format>image/svg+xml</dc:format>
        <dc:type
           rdf:resource="http://purl.org/dc/dcmitype/StillImage" />
        <dc:title>Gnome Symbolic Icon Theme</dc:title>
      </cc:Work>
    </rdf:RDF>
  </metadata>
  <sodipodi:namedview
     inkscape:bbox-paths="false"
     bordercolor="#666666"
     borderopacity="1"
     inkscape:current-layer="layer12"
     inkscape:cx="4.213459"
     inkscape:cy="7.89106"
     gridtolerance="10"
     inkscape:guide-bbox="true"
     guidetolerance="10"
     id="namedview88"
     inkscape:object-nodes="false"
     inkscape:object-paths="false"
     objecttolerance="10"
     pagecolor="#555753"
     inkscape:pageopacity="1"
     inkscape:pageshadow="2"
     showborder="false"
     showgrid="true"
     showguides="true"
     inkscape:snap-bbox="true"
     inkscape:snap-bbox-midpoints="false"
     inkscape:snap-global="true"
     inkscape:snap-grids="true"
     inkscape:snap-nodes="false"
     inkscape:snap-others="false"
     inkscape:snap-to-guides="true"
     inkscape:window-height="703"
     inkscape:window-maximized="1"
     inkscape:window-width="1366"
     inkscape:window-x="0"
     inkscape:window-y="28"
     inkscape:zoom="22.627417">
    <inkscape:grid
       empspacing="2"
       enabled="true"
       id="grid4866"
       snapvisiblegridlinesonly="true"
       spacingx="1px"
       spacingy="1px"
       type="xygrid"
       visible="true" />
    <sodipodi:guide
       position="0,0"
       orientation="0,16"
       id="guide3001" />
    <sodipodi:guide
       position="16,0"
       orientation="-16,0"
       id="guide3003" />
    <sodipodi:guide
       position="16,16"
       orientation="0,-16"
       id="guide3005" />
    <sodipodi:guide
       position="0,16"
       orientation="16,0"
       id="guide3007" />
  </sodipodi:namedview>
  <title
     id="title9167">Gnome Symbolic Icon Theme</title>
  <defs
     id="defs7386" />
  <g
     inkscape:groupmode="layer"
     id="layer9"
     inkscape:label="status"
     style="display:inline"
     transform="translate(-61.0004,-867)" />
  <g
     inkscape:groupmode="layer"
     id="layer10"
     inkscape:label="devices"
     transform="translate(-61.0004,-867)" />
  <g
     inkscape:groupmode="layer"
     id="layer11"
     inkscape:label="apps"
     transform="translate(-61.0004,-867)" />
  <g
     inkscape:groupmode="layer"
     id="layer13"
     inkscape:label="places"
     transform="translate(-61.0004,-867)" />
  <g
     inkscape:groupmode="layer"
     id="layer14"
     inkscape:label="mimetypes"
     transform="translate(-61.0004,-867)" />
  <g
     inkscape:groupmode="layer"
     id="layer15"
     inkscape:label="emblems"
     style="display:inline"
     transform="translate(-61.0004,-867)" />
  <g
     inkscape:groupmode="layer"
     id="g71291"
     inkscape:label="emotes"
     style="display:inline"
     transform="translate(-61.0004,-867)" />
  <g
     inkscape:groupmode="layer"
     id="g4953"
     inkscape:label="categories"
     style="display:inline"
     transform="translate(-61.0004,-867)" />
  <g
     inkscape:groupmode="layer"
     id="layer12"
     inkscape:label="actions"
     style="display:inline"
     transform="translate(-61.0004,-867)">
    <path
       style="color:#000000;fill:#bebebe;fill-opacity:1;fill-rule:nonzero;stroke:none;stroke-width:1;marker:none;visibility:visible;display:inline;overflow:visible;enable-background:new"
       d="M 1.53125 2 C 1.2404146 2 1 2.2688913 1 2.59375 L 1 6.40625 C 1 6.7311087 1.2404146 7 1.53125 7 L 6.46875 7 C 6.7595854 7 7 6.7311087 7 6.40625 L 7 2.59375 C 7 2.2688913 6.7595854 2 6.46875 2 L 1.53125 2 z M 1.96875 2.96875 L 6 2.96875 L 6 6 L 1.96875 6 L 1.96875 2.96875 z "
       transform="translate(61.0004,867)"
       id="rect13371" />
    <path
       style="color:#000000;fill:#bebebe;fill-opacity:1;fill-rule:nonzero;stroke:none;stroke-width:1;marker:none;visibility:visible;display:inline;overflow:visible;enable-background:new"
       d="M 9.5625 3 C 9.2716646 3 9.03125 3.2088631 9.03125 3.46875 L 9.03125 6.53125 C 9.03125 6.7911369 9.2716646 7 9.5625 7 L 14.5 7 C 14.790835 7 15.03125 6.7911369 15.03125 6.53125 L 15.03125 3.46875 C 15.03125 3.2088631 14.790835 3 14.5 3 L 9.5625 3 z M 10 4 L 14.03125 4 L 14.03125 6 L 10 6 L 10 4 z "
       transform="translate(61.0004,867)"
       id="rect13371-1" />
    <path
       style="color:#000000;fill:#bebebe;fill-opacity:1;fill-rule:nonzero;stroke:none;stroke-width:1;marker:none;visibility:visible;display:inline;overflow:visible;enable-background:new"
       d="M 2.4375 9.03125 C 2.1951372 9.03125 2 9.1821152 2 9.375 L 2 11.65625 C 2 11.849135 2.1951372 12 2.4375 12 L 6.5625 12 C 6.8048628 12 7 11.849135 7 11.65625 L 7 9.375 C 7 9.1821152 6.8048628 9.03125 6.5625 9.03125 L 2.4375 9.03125 z M 3 9.96875 L 5.96875 9.96875 L 5.96875 11.03125 L 3 11.03125 L 3 9.96875 z "
       transform="translate(61.0004,867)"
       id="rect13371-16" />
    <rect
       height="1.96875"
       id="rect13371-1-5"
       rx="0.34724841"
       ry="0.23089005"
       style="color:#000000;fill:#bebebe;fill-opacity:1;fill-rule:nonzero;stroke:none;stroke-width:1;marker:none;visibility:visible;display:inline;overflow:visible;enable-background:new"
       width="3.9687533"
       x="70.031647"
       y="876.03125" />
    <rect
       style="fill:#bebebe;fill-opacity:1;stroke:none;opacity:0.53287197"
       id="rect3043"
       width="4.125"
       height="1.96875"
       x="9.875"
       y="4"
       transform="translate(61.0004,867)" />
    <rect
       style="opacity:0.53287198;fill:#bebebe;fill-opacity:1;stroke:none"
       id="rect3815"
       width="4.03125"
       height="3.03125"
       x="1.96875"
       y="2.96875"
       transform="translate(61.0004,867)" />
    <rect
       style="opacity:0.53287198;fill:#bebebe;fill-opacity:1;stroke:none"
       id="rect3836"
       width="2.96875"
       height="1.0625"
       x="3"
       y="9.96875"
       transform="translate(61.0004,867)" />
  </g>
</svg>
