<?xml version="1.0" encoding="UTF-8" standalone="no"?>
<svg
   xmlns:dc="http://purl.org/dc/elements/1.1/"
   xmlns:cc="http://creativecommons.org/ns#"
   xmlns:rdf="http://www.w3.org/1999/02/22-rdf-syntax-ns#"
   xmlns:svg="http://www.w3.org/2000/svg"
   xmlns="http://www.w3.org/2000/svg"
   xmlns:sodipodi="http://sodipodi.sourceforge.net/DTD/sodipodi-0.dtd"
   xmlns:inkscape="http://www.inkscape.org/namespaces/inkscape"
   width="48"
   height="48"
   viewBox="0 0 48 48"
   id="svg2"
   version="1.1"
   inkscape:version="0.48.4 r9939"
   sodipodi:docname="mail-message-new.svg">
  <metadata
     id="metadata24">
    <rdf:RDF>
      <cc:Work
         rdf:about="">
        <dc:format>image/svg+xml</dc:format>
        <dc:type
           rdf:resource="http://purl.org/dc/dcmitype/StillImage" />
      </cc:Work>
    </rdf:RDF>
  </metadata>
  <defs
     id="defs22" />
  <sodipodi:namedview
     pagecolor="#ffffff"
     bordercolor="#666666"
     borderopacity="1"
     objecttolerance="10"
     gridtolerance="10"
     guidetolerance="10"
     inkscape:pageopacity="0"
     inkscape:pageshadow="2"
     inkscape:window-width="1366"
     inkscape:window-height="704"
     id="namedview20"
     showgrid="true"
     inkscape:zoom="9.8333333"
     inkscape:cx="14.847458"
     inkscape:cy="25.016949"
     inkscape:window-x="0"
     inkscape:window-y="27"
     inkscape:window-maximized="1"
     inkscape:current-layer="svg2">
    <inkscape:grid
       type="xygrid"
       id="grid3008" />
  </sodipodi:namedview>
  <path
     style="fill:#268bd2"
     d="M 6 46 L 42 46 C 46 46 46 46 46 42 L 46 16 L 24 2 L 2 16 L 2 42 C 2 46 2 46 6 46 Z "
     id="path4" />
  <path
     style="fill:#000000;fill-opacity:0.28514057"
     d="M 6 46 L 42 46 C 46 46 46 46 46 42 L 46 16 L 24 2 L 2 16 L 2 42 C 2 46 2 46 6 46 Z "
     id="path6" />
  <path
     style="fill:#fff"
     d="M 8 8 L 8 40 L 40 40 L 40 8 Z "
     id="path8" />
  <path
     style="fill:#268bd2"
     inkscape:connector-curvature="0"
     id="path12"
     d="m 6,46 36,0 c 4,0 4,0 4,-4 L 46,18 2,42 c 0,4 0,4 4,4 z" />
  <path
     style="fill:#268bd2"
     inkscape:connector-curvature="0"
     id="path14"
     d="M 42,46 6,46 C 2,46 2,46 2,42 L 2,18 46,42 c 0,4 0,4 -4,4 z" />
  <path
     style="fill:#ffffff;fill-opacity:0.27309236"
     d="M 42 46 L 6 46 C 2 46 2 46 2 42 L 2 18 L 46 42 C 46 46 46 46 42 46 Z "
     id="path16" />
  <path
     inkscape:connector-curvature="0"
     style="fill:#859900"
     d="m 48,32 -8,0 0,-8 -8,0 0,8 -8,0 0,8 8,0 0,8 8,0 0,-8 8,0 z"
     id="path8-5"
     inkscape:transform-center-x="-12"
     inkscape:transform-center-y="13.220339" />
  <path
     style="fill:#acc000;stroke:none;stroke-width:1px;stroke-linecap:butt;stroke-linejoin:miter;stroke-opacity:1;fill-opacity:1"
     d="m 25,33 0,6 8,0 0,8 5,0 1,0 0,-8 8,0 0,-6 -8,0 0,-8 -6,0 0,8 z"
     id="path3010"
     inkscape:connector-curvature="0" />
</svg>
