<?xml version="1.0" encoding="UTF-8" standalone="no"?>
<svg
   xmlns:dc="http://purl.org/dc/elements/1.1/"
   xmlns:cc="http://creativecommons.org/ns#"
   xmlns:rdf="http://www.w3.org/1999/02/22-rdf-syntax-ns#"
   xmlns:svg="http://www.w3.org/2000/svg"
   xmlns="http://www.w3.org/2000/svg"
   xmlns:sodipodi="http://sodipodi.sourceforge.net/DTD/sodipodi-0.dtd"
   xmlns:inkscape="http://www.inkscape.org/namespaces/inkscape"
   viewBox="0 0 16 16"
   id="svg2"
   version="1.1"
   inkscape:version="0.48.4 r9939"
   width="100%"
   height="100%"
   sodipodi:docname="folder-symbolic.svg">
  <metadata
     id="metadata14">
    <rdf:RDF>
      <cc:Work
         rdf:about="">
        <dc:format>image/svg+xml</dc:format>
        <dc:type
           rdf:resource="http://purl.org/dc/dcmitype/StillImage" />
      </cc:Work>
    </rdf:RDF>
  </metadata>
  <defs
     id="defs12" />
  <sodipodi:namedview
     pagecolor="#ffffff"
     bordercolor="#666666"
     borderopacity="1"
     objecttolerance="10"
     gridtolerance="10"
     guidetolerance="10"
     inkscape:pageopacity="0"
     inkscape:pageshadow="2"
     inkscape:window-width="1920"
     inkscape:window-height="1014"
     id="namedview10"
     showgrid="true"
     inkscape:zoom="29.5"
     inkscape:cx="8.1355932"
     inkscape:cy="8"
     inkscape:window-x="0"
     inkscape:window-y="27"
     inkscape:window-maximized="1"
     inkscape:current-layer="svg2">
    <inkscape:grid
       type="xygrid"
       id="grid2991" />
  </sodipodi:namedview>
  <path
     inkscape:connector-curvature="0"
     id="path6"
     d="m 2.0131822,12.746074 0,-10.1818398 c 2.7e-5,-0.290988 0.242619,-0.55573 0.509258,-0.55576 l 10.9684658,0 c 0.26664,3e-5 0.509231,0.264772 0.509259,0.55576 l 0,9.2054018 z"
     style="line-height:normal;opacity:0.4;color:#000000;fill:#bebebe"
     sodipodi:nodetypes="ccccccc" />
  <path
     style="line-height:normal;color:#000000;fill:#bebebe"
     inkscape:connector-curvature="0"
     id="path8"
     d="m 0.54167266,3.0422731 c -0.294224,0.02663 -0.54304,0.281809 -0.5416670046475,0.555514 l 0,10.5161919 C 3.7655353e-5,14.404837 0.28585466,14.669463 0.60000566,14.669492 l 14.79999434,0 c 0.314151,-2.9e-5 0.599969,-0.264655 0.600001,-0.555513 l 0,-9.540185 C 15.999969,4.282935 15.714151,4.018309 15.4,4.01828 l -6.3893338,0 0,-0.4204929 c -3.1e-5,-0.29086 -0.285849,-0.555485 -0.599999,-0.555514 l -7.81066154,0 c -0.01943,-8.67e-4 -0.0389,-8.67e-4 -0.058333,0 z"
     sodipodi:nodetypes="ccccccccccccc" />
</svg>
