<?xml version="1.0" encoding="UTF-8" standalone="no"?>
<svg
   xmlns:dc="http://purl.org/dc/elements/1.1/"
   xmlns:cc="http://creativecommons.org/ns#"
   xmlns:rdf="http://www.w3.org/1999/02/22-rdf-syntax-ns#"
   xmlns:svg="http://www.w3.org/2000/svg"
   xmlns="http://www.w3.org/2000/svg"
   xmlns:sodipodi="http://sodipodi.sourceforge.net/DTD/sodipodi-0.dtd"
   xmlns:inkscape="http://www.inkscape.org/namespaces/inkscape"
   width="16"
   height="16"
   viewBox="0 0 16 16"
   id="svg2"
   version="1.1"
   inkscape:version="0.48.4 r9939"
   sodipodi:docname="address-book-new.svg">
  <metadata
     id="metadata16">
    <rdf:RDF>
      <cc:Work
         rdf:about="">
        <dc:format>image/svg+xml</dc:format>
        <dc:type
           rdf:resource="http://purl.org/dc/dcmitype/StillImage" />
      </cc:Work>
    </rdf:RDF>
  </metadata>
  <defs
     id="defs14" />
  <sodipodi:namedview
     pagecolor="#ffffff"
     bordercolor="#666666"
     borderopacity="1"
     objecttolerance="10"
     gridtolerance="10"
     guidetolerance="10"
     inkscape:pageopacity="0"
     inkscape:pageshadow="2"
     inkscape:window-width="1366"
     inkscape:window-height="714"
     id="namedview12"
     showgrid="true"
     inkscape:zoom="29.5"
     inkscape:cx="5.9661017"
     inkscape:cy="8"
     inkscape:window-x="0"
     inkscape:window-y="27"
     inkscape:window-maximized="1"
     inkscape:current-layer="svg2">
    <inkscape:grid
       type="xygrid"
       id="grid3019" />
  </sodipodi:namedview>
  <path
     inkscape:connector-curvature="0"
     id="path6"
     d="m 3,0 10,0 c 0,0 2,0 2,2 l 0,12 c 0,2 -2,2 -2,2 L 3,16 C 3,16 1,16 1,14 L 1,2 C 1,0 3,0 3,0 z"
     style="fill:#6c71c4;fill-rule:evenodd"
     sodipodi:nodetypes="ccscccssc" />
  <path
     inkscape:connector-curvature="0"
     id="path8"
     d="M 5.5718354,4.0612271 C 5.1842952,5.4442831 5.1753606,7.3591168 5.8669326,8.3036397 6.157605,8.7516696 6.5542322,9.3408757 6.2433559,9.8770666 5.668683,10.713584 4.7106919,11.164845 3.8384262,11.620592 c -0.2963213,0.03047 -0.1892826,0.306628 -0.2091241,0.510299 -4.76e-4,0.161976 -0.048475,0.373521 0.1882125,0.297676 l 3.8478863,0 0.6691982,0 3.8478879,0 c 0.236688,0.07584 0.188686,-0.1357 0.188212,-0.297676 -0.01985,-0.203671 0.0872,-0.479816 -0.209125,-0.510299 C 11.289308,11.164845 10.331319,10.713584 9.7566448,9.8770666 9.4457695,9.3408757 9.8423948,8.7516696 10.133069,8.3036397 10.863625,7.2754526 10.958624,5.0383741 10.425843,4.0298751 9.9444451,3.1555602 9.4583336,2.7002663 8,2.6666698 6.5393432,2.7257455 6.0555555,3.1555602 5.5718354,4.0612271 z"
     style="color:#bebebe;fill:#2d2d2d;fill-opacity:0.53299997" />
  <path
     style="fill:#000000;fill-rule:evenodd;fill-opacity:1;opacity:0.2"
     d="M 3 0 C 3 0 1 0 1 2 L 1 14 C 1 16 3 16 3 16 L 13 16 C 13 16 15 16 15 14 L 15 2 C 15 0 13 0 13 0 L 3 0 z M 3 1 L 13 1 C 13 1 14 0.99998982 14 2 L 14 14 C 14 15 13 15 13 15 L 3 15 C 3 15 2 15 2 14 L 2 2 C 2 2 2 1 3 1 z "
     id="path6-3" />
  <path
     style="fill:#859900"
     d="m 16,10 -3,0 0,-3 -3,0 0,3 -3,0 0,3 3,0 0,3 3,0 0,-3 3,0 z"
     id="path10" />
  <path
     style="fill:#b7d300;stroke:none;stroke-width:1px;stroke-linecap:butt;stroke-linejoin:miter;stroke-opacity:1;fill-opacity:1"
     d="m 8,11 0,1 3,0 0,3 1,0 0,-3 3,0 0,-1 -3,0 0,-3 -1,0 0,3 z"
     id="path3815"
     inkscape:connector-curvature="0" />
</svg>
