<?xml version="1.0" encoding="UTF-8" standalone="no"?>
<svg
   xmlns:dc="http://purl.org/dc/elements/1.1/"
   xmlns:cc="http://creativecommons.org/ns#"
   xmlns:rdf="http://www.w3.org/1999/02/22-rdf-syntax-ns#"
   xmlns:svg="http://www.w3.org/2000/svg"
   xmlns="http://www.w3.org/2000/svg"
   xmlns:sodipodi="http://sodipodi.sourceforge.net/DTD/sodipodi-0.dtd"
   xmlns:inkscape="http://www.inkscape.org/namespaces/inkscape"
   width="16"
   viewBox="0 0 16 16"
   height="16"
   id="svg2"
   version="1.1"
   inkscape:version="0.48.4 r9939"
   sodipodi:docname="contact-new.svg">
  <metadata
     id="metadata12">
    <rdf:RDF>
      <cc:Work
         rdf:about="">
        <dc:format>image/svg+xml</dc:format>
        <dc:type
           rdf:resource="http://purl.org/dc/dcmitype/StillImage" />
      </cc:Work>
    </rdf:RDF>
  </metadata>
  <defs
     id="defs10" />
  <sodipodi:namedview
     pagecolor="#ffffff"
     bordercolor="#666666"
     borderopacity="1"
     objecttolerance="10"
     gridtolerance="10"
     guidetolerance="10"
     inkscape:pageopacity="0"
     inkscape:pageshadow="2"
     inkscape:window-width="814"
     inkscape:window-height="526"
     id="namedview8"
     showgrid="true"
     inkscape:zoom="20.85965"
     inkscape:cx="10.157275"
     inkscape:cy="8"
     inkscape:window-x="0"
     inkscape:window-y="27"
     inkscape:window-maximized="0"
     inkscape:current-layer="svg2">
    <inkscape:grid
       type="xygrid"
       id="grid2989" />
  </sodipodi:namedview>
  <path
     style="color:#bebebe;fill:#6c71c4"
     d="M 3.9973521,2.281999 C 3.3679646,4.5451788 3.3534545,7.6785384 4.4766085,9.2241207 4.9486787,9.9572583 5.5928244,10.921413 5.0879434,11.798815 4.1546389,13.167661 2.5988052,13.906087 1.1821932,14.651854 0.70095042,14.701734 0.874787,15.153608 0.84256273,15.486888 0.8417911,15.751939 0.76383403,16.098102 1.1482301,15.973993 l 6.2491991,0 1.0868179,0 6.2491979,0 c 0.384396,0.124109 0.306438,-0.222054 0.305668,-0.487105 -0.03224,-0.33328 0.141613,-0.785155 -0.33963,-0.835034 C 13.28287,13.906087 11.727038,13.167661 10.793732,11.798815 10.288852,10.921413 10.932998,9.9572583 11.405066,9.2241207 12.591533,7.5416344 12.745817,3.8809663 11.880549,2.2306961 11.098731,0.80000021 10.309258,0.05497504 7.940839,8.2804955e-8 5.5686444,0.09667384 4.7829442,0.80000021 3.9973521,2.281999 z"
     id="path4"
     inkscape:connector-curvature="0" />
  <path
     style="opacity:0.2;color:#bebebe;fill:none;stroke:#000000;stroke-width:1;stroke-opacity:1"
     d="m 4.373551,2.6120402 c -0.5897595,2.1217311 -0.5074771,4.867498 0.5449599,6.3164815 0.4423472,0.6873185 1.1418145,2.1664903 0.6687223,2.9890543 -0.8745409,1.283293 -2.6200514,2.359083 -3.9474693,3.058239 -0.4509424,0.04677 -0.288051,0.470395 -0.3182464,0.782845 -7.231e-4,0.248485 -0.073772,-0.194019 0.2864216,-0.310371 l 5.8557313,0 1.0183886,0 5.855732,0 c 0.360194,0.116352 0.287144,0.558856 0.286422,0.310371 -0.03021,-0.31245 0.132696,-0.736083 -0.318245,-0.782845 -1.32742,-0.699156 -2.977049,-1.774946 -3.851593,-3.058239 -0.4730898,-0.822564 0.03462,-2.109978 0.476964,-2.7972965 1.111764,-1.577331 1.400153,-5.0092074 0.589365,-6.5563358 C 10.788112,1.2226663 10.192164,0.5242048 7.9728654,0.47266571 5.7500312,0.5632974 5.1096799,1.2226663 4.373551,2.6120402 z"
     id="path4-2"
     inkscape:connector-curvature="0"
     sodipodi:nodetypes="cccccccccccccccc" />
  <path
     style="fill:#859900"
     d="m 16,10 -3,0 0,-3.0000002 -3,0 L 10,10 l -2.9999999,0 0,3 L 10,13 l 0,3 3,0 0,-3 3,0 z"
     id="path6" />
  <path
     style="fill:#bcd800;stroke:none;stroke-width:1px;stroke-linecap:butt;stroke-linejoin:miter;stroke-opacity:1;fill-opacity:1"
     d="m 8,11 0,1 3,0 0,3 1,0 0,-3 3,0 0,-1 -3,0 0,-3 -1,0 0,3 z"
     id="path2991"
     inkscape:connector-curvature="0" />
</svg>
