<?xml version="1.0" encoding="UTF-8" standalone="no"?>
<svg
   xmlns:dc="http://purl.org/dc/elements/1.1/"
   xmlns:cc="http://creativecommons.org/ns#"
   xmlns:rdf="http://www.w3.org/1999/02/22-rdf-syntax-ns#"
   xmlns:svg="http://www.w3.org/2000/svg"
   xmlns="http://www.w3.org/2000/svg"
   xmlns:sodipodi="http://sodipodi.sourceforge.net/DTD/sodipodi-0.dtd"
   xmlns:inkscape="http://www.inkscape.org/namespaces/inkscape"
   width="16"
   viewBox="0 0 16 16"
   height="16"
   id="svg2"
   version="1.1"
   inkscape:version="0.48.4 r9939"
   sodipodi:docname="dialog-no.svg">
  <metadata
     id="metadata10">
    <rdf:RDF>
      <cc:Work
         rdf:about="">
        <dc:format>image/svg+xml</dc:format>
        <dc:type
           rdf:resource="http://purl.org/dc/dcmitype/StillImage" />
      </cc:Work>
    </rdf:RDF>
  </metadata>
  <defs
     id="defs8" />
  <sodipodi:namedview
     pagecolor="#ffffff"
     bordercolor="#666666"
     borderopacity="1"
     objecttolerance="10"
     gridtolerance="10"
     guidetolerance="10"
     inkscape:pageopacity="0"
     inkscape:pageshadow="2"
     inkscape:window-width="1366"
     inkscape:window-height="714"
     id="namedview6"
     showgrid="true"
     inkscape:zoom="20.85965"
     inkscape:cx="-0.52417804"
     inkscape:cy="7.6083344"
     inkscape:window-x="0"
     inkscape:window-y="27"
     inkscape:window-maximized="1"
     inkscape:current-layer="svg2">
    <inkscape:grid
       type="xygrid"
       id="grid2987" />
  </sodipodi:namedview>
  <path
     style="opacity:1;fill:#dc322f;fill-opacity:1;stroke:none"
     d="M 2,11 11,2 14.440678,5 14,5 5,14 z"
     id="path3824-3"
     inkscape:connector-curvature="0" />
  <path
     style="opacity:1;fill:#dc322f;fill-opacity:1;stroke:none"
     d="m 7.9830509,1.847458 c -3.33243,0 -6.0338983,2.7242336 -6.0338983,6.0847458 0,3.3605112 2.7014683,6.0847462 6.0338983,6.0847462 3.3324301,0 6.0338981,-2.724235 6.0338981,-6.0847462 0,-3.3605122 -2.701468,-6.0847458 -6.0338981,-6.0847458 z m 0,1.1404358 c 2.8563681,0 5.0024211,2.0638709 5.0024211,4.94431 0,2.8804382 -2.146053,5.0799032 -5.0024211,5.0799032 -2.8563687,0 -4.9685231,-2.199465 -4.9685231,-5.0799032 0,-2.8804391 2.1121544,-4.94431 4.9685231,-4.94431 z"
     id="path3805-7"
     inkscape:connector-curvature="0"
     sodipodi:nodetypes="ssssssssss" />
  <path
     style="fill:#000000;fill-opacity:1;stroke:none;opacity:0.2"
     d="M 7.96875 1.84375 C 4.63632 1.84375 1.9375 4.5769878 1.9375 7.9375 C 1.9375 8.842482 2.179856 9.6968339 2.53125 10.46875 L 2 11 L 5 14 L 5.53125 13.46875 C 6.2801772 13.80487 7.0961112 14.03125 7.96875 14.03125 C 11.30118 14.03125 14.03125 11.298012 14.03125 7.9375 C 14.03125 7.0723823 13.822746 6.245158 13.5 5.5 L 14 5 L 14.4375 5 L 11 2 L 10.5625 2.4375 C 9.7792837 2.0626839 8.8933263 1.84375 7.96875 1.84375 z M 7.96875 3 C 8.5880248 3 9.1808823 3.099939 9.71875 3.28125 L 3.3125 9.6875 C 3.1262373 9.1404255 3 8.5648736 3 7.9375 C 3 5.0570609 5.1123813 3 7.96875 3 z M 12.6875 6.3125 C 12.851012 6.8177092 13 7.3552615 13 7.9375 C 13 10.817939 10.825118 13 7.96875 13 C 7.3617717 13 6.8078901 12.902818 6.28125 12.71875 L 12.6875 6.3125 z "
     id="path3805" />
  <path
     style="fill:#dc322f;fill-rule:evenodd"
     d="M 8.21875 0 A 8.0000001 8.0000001 0 0 0 0 8 A 8.0000001 8.0000001 0 0 0 16 8 A 8.0000001 8.0000001 0 0 0 8.21875 0 z M 7.5625 2 A 6 6 0 0 1 11.5 3.09375 L 3.125 11.46875 A 6 6 0 0 1 2 8 A 6 6 0 0 1 7.5625 2 z M 12.90625 4.5 A 6 6 0 0 1 14 8 A 6 6 0 0 1 4.53125 12.875 L 12.90625 4.5 z "
     id="path4" />
  <path
     style="fill:#000000;fill-opacity:1;stroke:none;opacity:0.2"
     d="M 8,0.06779661 C 3.581722,0.06779661 0.06779661,3.581722 0.06779661,8 0.06779661,12.418278 3.581722,15.932203 8,15.932203 12.418278,15.932203 15.932203,12.418278 15.932203,8 15.932203,3.581722 12.418278,0.06779661 8,0.06779661 z M 8,1 c 3.865993,0 7,3.1340068 7,7 0,3.865993 -3.134007,7 -7,7 C 4.1340068,15 1,11.865993 1,8 1,4.1340068 4.1340068,1 8,1 z"
     id="path3763"
     inkscape:connector-curvature="0"
     sodipodi:nodetypes="ssssssssss" />
</svg>
