<?xml version="1.0" encoding="UTF-8" standalone="no"?>
<svg
   xmlns:dc="http://purl.org/dc/elements/1.1/"
   xmlns:cc="http://creativecommons.org/ns#"
   xmlns:rdf="http://www.w3.org/1999/02/22-rdf-syntax-ns#"
   xmlns:svg="http://www.w3.org/2000/svg"
   xmlns="http://www.w3.org/2000/svg"
   xmlns:sodipodi="http://sodipodi.sourceforge.net/DTD/sodipodi-0.dtd"
   xmlns:inkscape="http://www.inkscape.org/namespaces/inkscape"
   width="16"
   height="16"
   viewBox="0 0 16 16"
   id="svg2"
   version="1.1"
   inkscape:version="0.48.4 r9939"
   sodipodi:docname="document-export.svg">
  <metadata
     id="metadata14">
    <rdf:RDF>
      <cc:Work
         rdf:about="">
        <dc:format>image/svg+xml</dc:format>
        <dc:type
           rdf:resource="http://purl.org/dc/dcmitype/StillImage" />
      </cc:Work>
    </rdf:RDF>
  </metadata>
  <defs
     id="defs12" />
  <sodipodi:namedview
     pagecolor="#ffffff"
     bordercolor="#666666"
     borderopacity="1"
     objecttolerance="10"
     gridtolerance="10"
     guidetolerance="10"
     inkscape:pageopacity="0"
     inkscape:pageshadow="2"
     inkscape:window-width="1366"
     inkscape:window-height="714"
     id="namedview10"
     showgrid="true"
     inkscape:zoom="29.5"
     inkscape:cx="8"
     inkscape:cy="8"
     inkscape:window-x="0"
     inkscape:window-y="27"
     inkscape:window-maximized="1"
     inkscape:current-layer="svg2">
    <inkscape:grid
       type="xygrid"
       id="grid2991" />
  </sodipodi:namedview>
  <path
     inkscape:connector-curvature="0"
     id="path6"
     d="m 1.714286,4.9999996e-8 8.571429,0 C 12,4.9999996e-8 12,4.9999996e-8 12,1.7777778 L 12,14.222222 C 12,16 12,16 10.285715,16 L 1.714286,16 C 0,16 0,16 0,14.222222 L 0,1.7777778 C 0,4.9999998e-8 0,4.9999998e-8 1.714286,4.9999998e-8 z"
     style="fill:#eee8d5;fill-rule:evenodd" />
  <path
     style="fill:#000000;fill-rule:evenodd;fill-opacity:1;opacity:0.2"
     d="M 1.71875 0 C 0.004464 0 0 0.0034722 0 1.78125 L 0 14.21875 C 2.9605947e-16 15.996528 0.004464 16 1.71875 16 L 10.28125 16 C 11.995535 16 12 15.996528 12 14.21875 L 12 1.78125 C 12 0.0034722 11.995535 0 10.28125 0 L 1.71875 0 z M 1 1 L 11 1 L 11 15 L 1 15 L 1 1 z "
     id="path6-6" />
  <path
     inkscape:connector-curvature="0"
     id="path8"
     d="m 9.3753602,13.375 c 0.140625,0 0.34375,-0.125 0.59375,-0.375 L 14.96911,9 c 1.003692,-1.0036924 1,-1 0,-2 L 9.9691102,3 c -0.75,-0.75 -0.953125,-0.375 -1,1.125 -0.01563,0.5 0,1.125 0,1.875 -0.01055,-4.4e-5 -0.02069,0 -0.03125,0 -4.96875,0 -6.96875,3 -6.9375,7.03125 C 3.9691102,11 5.9691102,10 8.9691102,10.0625 c -9.56e-4,0.716944 -0.0151,1.329167 0,1.8125 0.03125,1 0.125,1.5 0.40625,1.5 z"
     style="fill:#268bd2;fill-rule:evenodd" />
  <path
     inkscape:connector-curvature="0"
     id="path8-5"
     d="m 9.7821399,12.459746 c 0.140625,0 0.3437501,-0.125 0.5937501,-0.375 L 14.291144,9 c 1.003692,-1.0036924 1.20339,-0.8644068 0.20339,-1.8644068 L 9.9691102,3.6779661 c -0.75,-0.75 -0.4107521,-0.5105932 -0.4576271,0.9894068 -0.01563,0.5 0,1.0572034 0,1.8072034 -0.01055,-4.4e-5 -0.02069,0.033898 -0.03125,0.033898 -4.96875,0 -6.4802331,2.118644 -6.9375,5.3702334 1.96875,-2.0312504 3.96875,-2.3871826 6.96875,-2.3246826 -9.56e-4,0.7169436 -0.0151,1.8376416 0,2.3209746 0.03125,1 -0.010593,0.584746 0.2706568,0.584746 z"
     style="opacity:0.2;fill:none;stroke:#000000;stroke-opacity:1"
     sodipodi:nodetypes="sccccscsccss" />
</svg>
