<?xml version="1.0" encoding="UTF-8" standalone="no"?>
<svg
   xmlns:dc="http://purl.org/dc/elements/1.1/"
   xmlns:cc="http://creativecommons.org/ns#"
   xmlns:rdf="http://www.w3.org/1999/02/22-rdf-syntax-ns#"
   xmlns:svg="http://www.w3.org/2000/svg"
   xmlns="http://www.w3.org/2000/svg"
   xmlns:sodipodi="http://sodipodi.sourceforge.net/DTD/sodipodi-0.dtd"
   xmlns:inkscape="http://www.inkscape.org/namespaces/inkscape"
   width="16"
   height="16"
   viewBox="0 0 16 16"
   id="svg2"
   version="1.1"
   inkscape:version="0.48.4 r9939"
   sodipodi:docname="document-revert.svg">
  <metadata
     id="metadata12">
    <rdf:RDF>
      <cc:Work
         rdf:about="">
        <dc:format>image/svg+xml</dc:format>
        <dc:type
           rdf:resource="http://purl.org/dc/dcmitype/StillImage" />
      </cc:Work>
    </rdf:RDF>
  </metadata>
  <defs
     id="defs10" />
  <sodipodi:namedview
     pagecolor="#ffffff"
     bordercolor="#666666"
     borderopacity="1"
     objecttolerance="10"
     gridtolerance="10"
     guidetolerance="10"
     inkscape:pageopacity="0"
     inkscape:pageshadow="2"
     inkscape:window-width="1366"
     inkscape:window-height="714"
     id="namedview8"
     showgrid="true"
     inkscape:zoom="14.75"
     inkscape:cx="10.079257"
     inkscape:cy="4.8359968"
     inkscape:window-x="0"
     inkscape:window-y="27"
     inkscape:window-maximized="1"
     inkscape:current-layer="svg2">
    <inkscape:grid
       type="xygrid"
       id="grid2989" />
  </sodipodi:namedview>
  <path
     style="fill:#eee8d5;fill-rule:evenodd"
     d="m 3.714286,0 8.571429,0 C 14,0 14,0 14,1.7777778 L 14,14.222222 C 14,16 14,16 12.285715,16 L 3.714286,16 C 2,16 2,16 2,14.222222 L 2,1.7777778 C 2,0 2,0 3.714286,0 z"
     id="path4" />
  <path
     style="fill:#000000;fill-rule:evenodd;fill-opacity:1;opacity:0.2"
     d="M 3.71875 0 C 2.004464 0 2 0.0034722 2 1.78125 L 2 14.21875 C 2 15.996528 2.004464 16 3.71875 16 L 12.28125 16 C 13.995535 16 14 15.996528 14 14.21875 L 14 1.78125 C 14 0.0034722 13.995535 0 12.28125 0 L 3.71875 0 z M 3 1 L 13 1 L 13 15 L 3 15 L 3 1 z "
     id="path4-2" />
  <path
     style="fill:#859900"
     d="m 11,14 c 1.330302,0 2.334849,0 3,0 0,0 2,0.06235 2,-3 C 16,7.9376479 14,7.7906908 14,7.7906908 14,10.139844 13.660604,10 11,10 11,9.2169489 11.131115,8.3703517 10.465964,8.3703517 L 7,11.663572 c -0.2162172,0.205441 -0.2208196,0.599514 0,0.8 L 10.44054,15.5873 C 11.105691,15.5873 11,14.762062 11,14 z"
     id="path6" />
  <path
     style="fill:#b8d400;stroke:none;stroke-width:1px;stroke-linecap:butt;stroke-linejoin:miter;stroke-opacity:1;fill-opacity:1"
     d="m 10,10 -2,2 2,2 0,-1 4,0 c 0,0 1,0 1,-2 0,-2 -0.37847,-2 -0.37847,-2 0,0 0.37847,2 -1.62153,2 -2,0 -3,0 -3,0 l 0,-1 z"
     id="path3780"
     inkscape:connector-curvature="0" />
</svg>
