<?xml version="1.0" encoding="UTF-8" standalone="no"?>
<svg
   xmlns:dc="http://purl.org/dc/elements/1.1/"
   xmlns:cc="http://creativecommons.org/ns#"
   xmlns:rdf="http://www.w3.org/1999/02/22-rdf-syntax-ns#"
   xmlns:svg="http://www.w3.org/2000/svg"
   xmlns="http://www.w3.org/2000/svg"
   xmlns:sodipodi="http://sodipodi.sourceforge.net/DTD/sodipodi-0.dtd"
   xmlns:inkscape="http://www.inkscape.org/namespaces/inkscape"
   width="16"
   height="16"
   viewBox="0 0 16 16"
   id="svg2"
   version="1.1"
   inkscape:version="0.48.4 r9939"
   sodipodi:docname="browser-download.svg">
  <metadata
     id="metadata18">
    <rdf:RDF>
      <cc:Work
         rdf:about="">
        <dc:format>image/svg+xml</dc:format>
        <dc:type
           rdf:resource="http://purl.org/dc/dcmitype/StillImage" />
      </cc:Work>
    </rdf:RDF>
  </metadata>
  <defs
     id="defs16" />
  <sodipodi:namedview
     pagecolor="#ffffff"
     bordercolor="#666666"
     borderopacity="1"
     objecttolerance="10"
     gridtolerance="10"
     guidetolerance="10"
     inkscape:pageopacity="0"
     inkscape:pageshadow="2"
     inkscape:window-width="1366"
     inkscape:window-height="714"
     id="namedview14"
     showgrid="false"
     inkscape:zoom="29.5"
     inkscape:cx="7.4576271"
     inkscape:cy="8"
     inkscape:window-x="0"
     inkscape:window-y="27"
     inkscape:window-maximized="1"
     inkscape:current-layer="svg2" />
  <path
     inkscape:connector-curvature="0"
     id="path6"
     d="m 4.11113,0 7.7778,0 c 2.33334,0 3.11112,0.8 3.11112,3.2 l 0,9.6 c 0,2.4 -0.77778,3.2 -3.11112,3.2 l -7.7778,0 C 1.77779,16 1.00001,15.2 1.00001,12.8 l 0,-9.6 C 1.00001,0.8 1.77779,0 4.11113,0 z"
     style="fill:#268bd2;fill-rule:evenodd" />
  <path
     inkscape:connector-curvature="0"
     id="path8"
     d="m 4.11113,0 7.7778,0 c 2.33334,0 3.11112,0.8 3.11112,3.2 l 0,6.4 c 0,2.4 -0.77778,3.2 -3.11112,3.2 l -7.7778,0 C 1.77779,12.8 1.00001,12 1.00001,9.6 l 0,-6.4 C 1.00001,0.8 1.77779,0 4.11113,0 z"
     style="fill:#ffffff;fill-opacity:0.3;fill-rule:evenodd" />
  <g
     style="color:#000"
     transform="translate(-4 -3)"
     id="g10">
    <path
       style="fill:#fff;fill-opacity:.9"
       d="m 16.5,10 -4.5,5 -4.5,-5 2.5,0 0,-5 4,0 0,5 z"
       id="path12" />
  </g>
  <path
     style="font-size:medium;font-style:normal;font-variant:normal;font-weight:normal;font-stretch:normal;text-indent:0;text-align:start;text-decoration:none;line-height:normal;letter-spacing:normal;word-spacing:normal;text-transform:none;direction:ltr;block-progression:tb;writing-mode:lr-tb;text-anchor:start;baseline-shift:baseline;opacity:0.2;color:#000000;fill:#000000;fill-opacity:1;stroke:none;stroke-width:1;marker:none;visibility:visible;display:inline;overflow:visible;enable-background:accumulate;font-family:Sans;-inkscape-font-specification:Sans"
     d="M 4.375,0 C 3.2339743,0 2.2356753,0.1319919 1.6456568,0.74470339 1.0556383,1.3574149 1,2.3215021 1,3.5 l 0,9 c 0,1.178498 0.055638,2.142585 0.6456568,2.755297 C 2.2356753,15.868009 3.2339743,16 4.375,16 l 7.25,0 c 1.141026,0 2.105427,-0.09809 2.695445,-0.710805 C 14.910463,14.676483 15,13.678498 15,12.5 l 0,-9 C 15,2.3215021 14.910463,1.2896183 14.320445,0.67690678 13.730427,0.06419528 12.766026,0 11.625,0 z m 0,1 7.25,0 c 1.025641,0 1.562241,0.1752115 1.875,0.5 0.312759,0.3247885 0.5,0.9284979 0.5,2 l 0,9 c 0,1.071502 -0.187241,1.675212 -0.5,2 -0.312759,0.324788 -0.849359,0.5 -1.875,0.5 l -7.25,0 C 3.349359,15 2.8127593,14.824788 2.5,14.5 2.1872407,14.175212 2,13.571502 2,12.5 l 0,-9 C 2,2.4284979 2.1872407,1.8247885 2.5,1.5 2.8127593,1.1752115 3.349359,1 4.375,1 z"
     id="path6-7"
     inkscape:connector-curvature="0"
     sodipodi:nodetypes="ssssssssssssssssssssssssss" />
</svg>
