<?xml version="1.0" encoding="UTF-8" standalone="no"?>
<svg
   xmlns:dc="http://purl.org/dc/elements/1.1/"
   xmlns:cc="http://creativecommons.org/ns#"
   xmlns:rdf="http://www.w3.org/1999/02/22-rdf-syntax-ns#"
   xmlns:svg="http://www.w3.org/2000/svg"
   xmlns="http://www.w3.org/2000/svg"
   xmlns:sodipodi="http://sodipodi.sourceforge.net/DTD/sodipodi-0.dtd"
   xmlns:inkscape="http://www.inkscape.org/namespaces/inkscape"
   width="16"
   height="16"
   viewBox="0 0 16 16"
   id="svg2"
   version="1.1"
   inkscape:version="0.48.4 r9939"
   sodipodi:docname="document-page-setup.svg">
  <metadata
     id="metadata20">
    <rdf:RDF>
      <cc:Work
         rdf:about="">
        <dc:format>image/svg+xml</dc:format>
        <dc:type
           rdf:resource="http://purl.org/dc/dcmitype/StillImage" />
      </cc:Work>
    </rdf:RDF>
  </metadata>
  <defs
     id="defs18" />
  <sodipodi:namedview
     pagecolor="#ffffff"
     bordercolor="#666666"
     borderopacity="1"
     objecttolerance="10"
     gridtolerance="10"
     guidetolerance="10"
     inkscape:pageopacity="0"
     inkscape:pageshadow="2"
     inkscape:window-width="1366"
     inkscape:window-height="714"
     id="namedview16"
     showgrid="true"
     inkscape:zoom="29.5"
     inkscape:cx="6.4869187"
     inkscape:cy="8"
     inkscape:window-x="0"
     inkscape:window-y="27"
     inkscape:window-maximized="1"
     inkscape:current-layer="svg2">
    <inkscape:grid
       type="xygrid"
       id="grid3015" />
  </sodipodi:namedview>
  <path
     style="fill:#eee8d5;fill-rule:evenodd"
     d="m 3.7142856,-1e-7 8.5714294,0 C 14,-1e-7 14,-1e-7 14,1.7777777 L 14,14.222222 C 14,16 14,16 12.285715,16 L 3.7142855,16 C 1.9999997,16 1.9999997,16 1.9999997,14.222222 l 0,-12.4444443 c 0,-1.777777799999999 0,-1.777777799999999 1.7142858,-1.777777799999999 z"
     id="path4" />
  <path
     style="fill:#aaaaaa;stroke:#aaaaaa;stroke-width:1;stroke-linecap:round"
     inkscape:connector-curvature="0"
     id="path8"
     d="m 4.4830507,11.99153 0,1.5 1.5,0" />
  <path
     style="fill:#aaaaaa;stroke:#aaaaaa;stroke-width:1;stroke-linecap:round"
     inkscape:connector-curvature="0"
     id="path10"
     d="m 11.48306,11.99153 0,1.5 -1.5000003,0" />
  <path
     style="fill:#aaaaaa;stroke:#aaaaaa;stroke-width:1;stroke-linecap:round"
     inkscape:connector-curvature="0"
     id="path12"
     d="m 9.9830597,2.5423728 1.5000003,0 0,1.5" />
  <path
     style="fill:#aaaaaa;stroke:#aaaaaa;stroke-width:1;stroke-linecap:round"
     inkscape:connector-curvature="0"
     id="path14"
     d="m 4.516949,4.0084745 0,-1.5 1.5,0" />
  <path
     style="fill:#000000;fill-rule:evenodd;fill-opacity:1;opacity:0.2"
     d="M 3.71875 0 C 2.0044642 0 2 0.0034722 2 1.78125 L 2 14.21875 C 2 15.996528 2.0044642 16 3.71875 16 L 12.28125 16 C 13.995535 16 14 15.996528 14 14.21875 L 14 1.78125 C 14 0.0034722 13.995535 0 12.28125 0 L 3.71875 0 z M 3 1 L 13 1 L 13 15 L 3 15 L 3 1 z "
     id="path4-4" />
</svg>
