<?xml version="1.0" encoding="UTF-8" standalone="no"?>
<svg
   xmlns:dc="http://purl.org/dc/elements/1.1/"
   xmlns:cc="http://creativecommons.org/ns#"
   xmlns:rdf="http://www.w3.org/1999/02/22-rdf-syntax-ns#"
   xmlns:svg="http://www.w3.org/2000/svg"
   xmlns="http://www.w3.org/2000/svg"
   xmlns:sodipodi="http://sodipodi.sourceforge.net/DTD/sodipodi-0.dtd"
   xmlns:inkscape="http://www.inkscape.org/namespaces/inkscape"
   width="16"
   height="16"
   viewBox="0 0 16 16"
   id="svg2"
   version="1.1"
   inkscape:version="0.48.4 r9939"
   sodipodi:docname="document-open.svg">
  <metadata
     id="metadata12">
    <rdf:RDF>
      <cc:Work
         rdf:about="">
        <dc:format>image/svg+xml</dc:format>
        <dc:type
           rdf:resource="http://purl.org/dc/dcmitype/StillImage" />
      </cc:Work>
    </rdf:RDF>
  </metadata>
  <defs
     id="defs10" />
  <sodipodi:namedview
     pagecolor="#ffffff"
     bordercolor="#666666"
     borderopacity="1"
     objecttolerance="10"
     gridtolerance="10"
     guidetolerance="10"
     inkscape:pageopacity="0"
     inkscape:pageshadow="2"
     inkscape:window-width="1366"
     inkscape:window-height="714"
     id="namedview8"
     showgrid="true"
     inkscape:zoom="29.5"
     inkscape:cx="7.9830508"
     inkscape:cy="11.536315"
     inkscape:window-x="0"
     inkscape:window-y="27"
     inkscape:window-maximized="1"
     inkscape:current-layer="svg2">
    <inkscape:grid
       type="xygrid"
       id="grid3027" />
  </sodipodi:namedview>
  <path
     style="opacity:1;fill:#a57953;fill-opacity:1;stroke:none"
     d="M 1.852274,12.15548 2.0217655,2.5034856 C 2.0262549,2.2478308 2.2422164,2.013291 2.4822632,2.013291 l 11.0644728,0 c 0.244945,0 0.465397,0.2345004 0.465397,0.4901946 l 0,8.7768914 z"
     id="path4-5"
     inkscape:connector-curvature="0"
     sodipodi:nodetypes="csssscc" />
  <path
     style="fill:#000000;stroke:none;fill-opacity:1;opacity:0.2"
     d="M 1.852274,12.15548 2.0217655,2.5034855 C 2.0262549,2.2478307 2.2422164,2.0132909 2.4822632,2.0132909 l 11.0644728,0 c 0.244945,0 0.465397,0.2345004 0.465397,0.4901946 l 0,8.7768915 z"
     id="path4"
     inkscape:connector-curvature="0"
     sodipodi:nodetypes="csssscc" />
  <path
     style="fill:#a57953;stroke:none"
     d="M 3.0048164,12.15548 3.1440682,3.4390234 c 0.00368,-0.230875 0.1811193,-0.4426816 0.3783384,-0.4426816 l 9.0904144,0 c 0.201243,0 0.382363,0.2117711 0.382363,0.4426816 l 0,7.9261746 z"
     id="path4-7"
     inkscape:connector-curvature="0"
     sodipodi:nodetypes="csssscc" />
  <path
     style="fill:#e9b080"
     d="M 0.5424,5 C 0.2472,5 0,5.2366667 0,5.4725 L 0,14.525 C 0,14.783333 0.2864,15 0.6008,15 L 15.4,15 c 0.32,0 0.6,-0.216667 0.6,-0.475 l 0,-8.0218926 c 0,-0.25 -0.280001,-0.4823944 -0.6,-0.4833334 l -5.4200678,0 0,-0.547274 c 0,-0.245 -0.296,-0.4725 -0.608,-0.4725 L 0.5992,5 c -0.016,0 -0.04,0 -0.048,0 z"
     id="path6"
     inkscape:connector-curvature="0"
     sodipodi:nodetypes="sssssssscsssss" />
  <path
     style="fill:#000000;fill-opacity:1;opacity:0.2"
     d="M 0.53125,5 C 0.23605,5 0,5.2329167 0,5.46875 l 0,9.0625 C 0,14.789583 0.27935,15 0.59375,15 l 14.8125,0 C 15.72625,15 16,14.789583 16,14.53125 l 0,-8.0492585 c 0,-0.25 -0.273751,-0.4678118 -0.59375,-0.46875 l -5.391419,0 0,-0.5444915 C 10.014831,5.22375 9.7330805,5 9.4210805,5 L 0.59375,5 0.5625,5 z M 1.5,6 1.5625,6 8.4375,6 C 8.7294051,6 9,6.2395297 9,6.46875 l 0,0.5 5.4375,0 C 14.73689,6.96875 15,7.2036017 15,7.4375 l 0,6.125 C 15,13.804195 14.73689,14 14.4375,14 L 1.5625,14 C 1.2683495,14 1,13.804195 1,13.5625 L 1,6.46875 C 1,6.248106 1.2238129,6 1.5,6 z"
     id="path6-0"
     inkscape:connector-curvature="0"
     sodipodi:nodetypes="sssssssscssccsscsscssssssss" />
</svg>
