<?xml version="1.0" encoding="UTF-8" standalone="no"?>
<svg
   xmlns:dc="http://purl.org/dc/elements/1.1/"
   xmlns:cc="http://creativecommons.org/ns#"
   xmlns:rdf="http://www.w3.org/1999/02/22-rdf-syntax-ns#"
   xmlns:svg="http://www.w3.org/2000/svg"
   xmlns="http://www.w3.org/2000/svg"
   xmlns:sodipodi="http://sodipodi.sourceforge.net/DTD/sodipodi-0.dtd"
   xmlns:inkscape="http://www.inkscape.org/namespaces/inkscape"
   width="16"
   viewBox="0 0 16 16"
   height="16"
   id="svg2"
   version="1.1"
   inkscape:version="0.48.4 r9939"
   sodipodi:docname="bottom.svg">
  <metadata
     id="metadata18">
    <rdf:RDF>
      <cc:Work
         rdf:about="">
        <dc:format>image/svg+xml</dc:format>
        <dc:type
           rdf:resource="http://purl.org/dc/dcmitype/StillImage" />
      </cc:Work>
    </rdf:RDF>
  </metadata>
  <defs
     id="defs16" />
  <sodipodi:namedview
     pagecolor="#ffffff"
     bordercolor="#666666"
     borderopacity="1"
     objecttolerance="10"
     gridtolerance="10"
     guidetolerance="10"
     inkscape:pageopacity="0"
     inkscape:pageshadow="2"
     inkscape:window-width="640"
     inkscape:window-height="480"
     id="namedview14"
     showgrid="true"
     inkscape:zoom="14.75"
     inkscape:cx="8"
     inkscape:cy="8"
     inkscape:window-x="0"
     inkscape:window-y="27"
     inkscape:window-maximized="0"
     inkscape:current-layer="svg2">
    <inkscape:grid
       type="xygrid"
       id="grid2995" />
  </sodipodi:namedview>
  <path
     style="fill:#268bd2;fill-rule:evenodd"
     d="M 7.9988168,16 A 8.0000001,8.0000001 0 0 1 7.9988168,-2.5e-8 8.0000001,8.0000001 0 1 1 7.9988168,16 z"
     id="path4" />
  <path
     style="fill:#fff;fill-opacity:.9"
     d="m 12.996605,8.15625 c 0.015,-0.464552 -0.249416,-0.881354 -0.6875,-1.0625 -0.438086,-0.181146 -0.951186,-0.083075 -1.28125,0.25 l -2.0312505,1.96875 0,-6.3125 -2,0 0,6.3125 L 4.965355,7.34375 c -0.450086,-0.438257 -1.174914,-0.438257 -1.625,0 -0.450087,0.438256 -0.450087,1.155494 0,1.59375 l 3.8437495,3.71875 C 7.4001455,12.869535 7.6905455,13 7.9966045,13 c 0.306059,0 0.596459,-0.130465 0.8125,-0.34375 L 12.652855,8.9375 c 0.213041,-0.201597 0.33475,-0.489079 0.34375,-0.78125 z"
     id="path6" />
  <path
     style="fill:none"
     d="M 14.252808,12.99023 A 8.0000001,8.0000001 0 0 1 7.9988168,16 l 0,0 A 8.0000001,8.0000001 0 0 1 1.760282,13.006588"
     id="path8" />
  <g
     style="fill-rule:evenodd"
     id="g10">
    <path
       style="fill:#fff;fill-opacity:.9"
       d="M 14.252808,12.99023 A 8.0000001,8.0000001 0 0 1 7.9988168,16 l 0,0 A 8.0000001,8.0000001 0 0 1 1.760282,13.006588"
       id="path12" />
  </g>
  <path
     style="opacity:0.2;fill:#000000;fill-opacity:0.99607843;stroke:none"
     d="M 8 0 C 3.581722 2.3684758e-15 0 3.581722 0 8 C 0 12.418278 3.581722 16 8 16 C 12.418278 16 16 12.418278 16 8 C 16 3.581722 12.418278 -1.7763568e-15 8 0 z M 8 1 C 11.865993 1 15 4.1340068 15 8 C 15 11.865993 11.865993 15 8 15 C 4.1340068 15 1 11.865993 1 8 C 1 4.1340068 4.1340068 1 8 1 z "
     id="path2997" />
</svg>
