<?xml version="1.0" encoding="UTF-8" standalone="no"?>
<svg
   xmlns:dc="http://purl.org/dc/elements/1.1/"
   xmlns:cc="http://creativecommons.org/ns#"
   xmlns:rdf="http://www.w3.org/1999/02/22-rdf-syntax-ns#"
   xmlns:svg="http://www.w3.org/2000/svg"
   xmlns="http://www.w3.org/2000/svg"
   xmlns:sodipodi="http://sodipodi.sourceforge.net/DTD/sodipodi-0.dtd"
   xmlns:inkscape="http://www.inkscape.org/namespaces/inkscape"
   width="16"
   viewBox="0 0 16 16"
   height="16"
   id="svg2"
   version="1.1"
   inkscape:version="0.48.4 r9939"
   sodipodi:docname="gohome.svg">
  <metadata
     id="metadata14">
    <rdf:RDF>
      <cc:Work
         rdf:about="">
        <dc:format>image/svg+xml</dc:format>
        <dc:type
           rdf:resource="http://purl.org/dc/dcmitype/StillImage" />
      </cc:Work>
    </rdf:RDF>
  </metadata>
  <defs
     id="defs12" />
  <sodipodi:namedview
     pagecolor="#ffffff"
     bordercolor="#666666"
     borderopacity="1"
     objecttolerance="10"
     gridtolerance="10"
     guidetolerance="10"
     inkscape:pageopacity="0"
     inkscape:pageshadow="2"
     inkscape:window-width="1366"
     inkscape:window-height="716"
     id="namedview10"
     showgrid="false"
     inkscape:zoom="14.75"
     inkscape:cx="-5.0169492"
     inkscape:cy="8"
     inkscape:window-x="0"
     inkscape:window-y="25"
     inkscape:window-maximized="1"
     inkscape:current-layer="svg2" />
  <path
     style="fill:#a63d12;fill-rule:evenodd;fill-opacity:1"
     d="m 16,8.0010954 a 8.0000001,8.0000001 0 0 1 -16.00000005,0 8.0000001,8.0000001 0 1 1 16.00000005,0 z"
     id="path4" />
  <path
     inkscape:connector-curvature="0"
     style="fill:#cb4b16;fill-rule:evenodd"
     d="m 15,7.9999999 a 7,7 0 0 1 -14,0 7,7 0 1 1 14,0 z"
     id="path4-2" />
  <g
     style="line-height:normal;color:#000"
     id="g6">
    <path
       style="fill:#fff;fill-opacity:.9"
       d="M 7.4018691,3.4225348 C 2.0853119,7.3508747 2.0186917,6.2827755 2.0186917,7.3661917 2.0186917,7.9295717 2.2056072,8 4,8 l 0,4 c 0,1 0,1 1,1 l 1,0 c 1,0 1,0 1,-1 L 7,9 c 0.9968848,0 1.0031152,0 2,0 l 0,3 c 0,1 0,1 1,1 l 1,0 c 1,0 1,0 1,-1 l 0,-4 c 1.794392,0 1.981308,-0.070432 1.981308,-0.6338083 0,-1.0849376 -0.04419,0.0041 -5.3831772,-3.9436569 C 8,2.8591552 8,2.8591552 7.4018691,3.4225348 z"
       id="path8" />
  </g>
</svg>
