<?xml version="1.0" encoding="UTF-8" standalone="no"?>
<svg
   xmlns:dc="http://purl.org/dc/elements/1.1/"
   xmlns:cc="http://creativecommons.org/ns#"
   xmlns:rdf="http://www.w3.org/1999/02/22-rdf-syntax-ns#"
   xmlns:svg="http://www.w3.org/2000/svg"
   xmlns="http://www.w3.org/2000/svg"
   xmlns:sodipodi="http://sodipodi.sourceforge.net/DTD/sodipodi-0.dtd"
   xmlns:inkscape="http://www.inkscape.org/namespaces/inkscape"
   width="16"
   viewBox="0 0 16 16"
   height="16"
   id="svg2"
   version="1.1"
   inkscape:version="0.48.4 r9939"
   sodipodi:docname="add.svg">
  <metadata
     id="metadata10">
    <rdf:RDF>
      <cc:Work
         rdf:about="">
        <dc:format>image/svg+xml</dc:format>
        <dc:type
           rdf:resource="http://purl.org/dc/dcmitype/StillImage" />
      </cc:Work>
    </rdf:RDF>
  </metadata>
  <defs
     id="defs8" />
  <sodipodi:namedview
     pagecolor="#ffffff"
     bordercolor="#666666"
     borderopacity="1"
     objecttolerance="10"
     gridtolerance="10"
     guidetolerance="10"
     inkscape:pageopacity="0"
     inkscape:pageshadow="2"
     inkscape:window-width="1366"
     inkscape:window-height="714"
     id="namedview6"
     showgrid="true"
     inkscape:zoom="14.75"
     inkscape:cx="-5.0169492"
     inkscape:cy="8"
     inkscape:window-x="0"
     inkscape:window-y="27"
     inkscape:window-maximized="1"
     inkscape:current-layer="svg2">
    <inkscape:grid
       type="xygrid"
       id="grid3791" />
  </sodipodi:namedview>
  <path
     style="fill:#859900"
     d="M 6 1 L 6 6 L 1 6 L 1 10 L 6 10 L 6 15 L 10 15 L 10 10 L 15 10 L 15 6 L 10 6 L 10 1 L 6 1 z "
     id="path4" />
  <path
     style="fill:#000000;fill-opacity:1;opacity:0.2"
     d="M 6 1 L 6 6 L 1 6 L 1 10 L 6 10 L 6 15 L 10 15 L 10 10 L 15 10 L 15 6 L 10 6 L 10 1 L 6 1 z M 7 2 L 9 2 L 9 7 L 14 7 L 14 9 L 9 9 L 9 14 L 7 14 L 7 9 L 2 9 L 2 7 L 7 7 L 7 2 z "
     id="path4-7" />
</svg>
