<?xml version="1.0" encoding="UTF-8" standalone="no"?>
<svg
   xmlns:dc="http://purl.org/dc/elements/1.1/"
   xmlns:cc="http://creativecommons.org/ns#"
   xmlns:rdf="http://www.w3.org/1999/02/22-rdf-syntax-ns#"
   xmlns:svg="http://www.w3.org/2000/svg"
   xmlns="http://www.w3.org/2000/svg"
   xmlns:sodipodi="http://sodipodi.sourceforge.net/DTD/sodipodi-0.dtd"
   xmlns:inkscape="http://www.inkscape.org/namespaces/inkscape"
   width="16"
   viewBox="0 0 16 16.0243"
   height="16.0243"
   id="svg2"
   version="1.1"
   inkscape:version="0.48.4 r9939"
   sodipodi:docname="application-exit.svg">
  <metadata
     id="metadata20">
    <rdf:RDF>
      <cc:Work
         rdf:about="">
        <dc:format>image/svg+xml</dc:format>
        <dc:type
           rdf:resource="http://purl.org/dc/dcmitype/StillImage" />
      </cc:Work>
    </rdf:RDF>
  </metadata>
  <defs
     id="defs18" />
  <sodipodi:namedview
     pagecolor="#ffffff"
     bordercolor="#666666"
     borderopacity="1"
     objecttolerance="10"
     gridtolerance="10"
     guidetolerance="10"
     inkscape:pageopacity="0"
     inkscape:pageshadow="2"
     inkscape:window-width="640"
     inkscape:window-height="480"
     id="namedview16"
     showgrid="true"
     inkscape:zoom="14.727633"
     inkscape:cx="8"
     inkscape:cy="8.0121498"
     inkscape:window-x="0"
     inkscape:window-y="27"
     inkscape:window-maximized="0"
     inkscape:current-layer="svg2">
    <inkscape:grid
       type="xygrid"
       id="grid2997" />
  </sodipodi:namedview>
  <path
     style="fill:#dc322f;fill-rule:evenodd"
     d="m -5.4319663,7.8084512 a 6.8239074,8.0800495 0 1 1 -13.6478147,0 6.8239074,8.0800495 0 1 1 13.6478147,0 z"
     transform="matrix(1.17235 0 0 .99009 22.36816 .28106)"
     id="path4" />
  <g
     style="fill:#fff;fill-opacity:.9"
     id="g6">
    <g
       transform="matrix(.75 0 0 .74966 2 1.99416)"
       id="g8">
      <rect
         width="2.667"
         x="-9.333"
         y=".04"
         rx=".837"
         ry="0"
         height="8.004"
         transform="scale(-1 1)"
         id="rect10" />
    </g>
    <g
       id="g12">
      <path
         style="fill-rule:evenodd"
         d="M 6 2.34375 C 3.6688332 3.1669998 2 5.387003 2 8 C 2 11.313708 4.6862918 14 8 14 C 11.313708 14 14 11.313708 14 8 C 14 5.387003 12.331167 3.1669999 10 2.34375 L 10 4.5625 C 11.193791 5.2545851 12 6.5207916 12 8 C 12 10.209139 10.209139 12 8 12 C 5.7908612 12 4 10.209139 4 8 C 4 6.5207915 4.8062088 5.2545851 6 4.5625 L 6 2.34375 z "
         id="path14" />
    </g>
  </g>
  <path
     style="opacity:0.2;fill:#000000;fill-opacity:0.99607843;stroke:none"
     d="M 8 0.03125 C 3.581722 0.03125 0 3.612972 0 8.03125 C 0 12.449528 3.581722 16.03125 8 16.03125 C 12.418278 16.03125 16 12.449528 16 8.03125 C 16 3.612972 12.418278 0.03125 8 0.03125 z M 8 1.03125 C 11.865993 1.03125 15 4.1652568 15 8.03125 C 15 11.897243 11.865993 15.03125 8 15.03125 C 4.1340068 15.03125 1 11.897243 1 8.03125 C 1 4.1652568 4.1340068 1.03125 8 1.03125 z "
     id="path2999" />
</svg>
