<?xml version="1.0" encoding="UTF-8" standalone="no"?>
<svg
   xmlns:dc="http://purl.org/dc/elements/1.1/"
   xmlns:cc="http://creativecommons.org/ns#"
   xmlns:rdf="http://www.w3.org/1999/02/22-rdf-syntax-ns#"
   xmlns:svg="http://www.w3.org/2000/svg"
   xmlns="http://www.w3.org/2000/svg"
   xmlns:sodipodi="http://sodipodi.sourceforge.net/DTD/sodipodi-0.dtd"
   xmlns:inkscape="http://www.inkscape.org/namespaces/inkscape"
   width="16"
   viewBox="0 0 16 16"
   height="16"
   id="svg2"
   version="1.1"
   inkscape:version="0.48.4 r9939"
   sodipodi:docname="dialog-close.svg">
  <metadata
     id="metadata10">
    <rdf:RDF>
      <cc:Work
         rdf:about="">
        <dc:format>image/svg+xml</dc:format>
        <dc:type
           rdf:resource="http://purl.org/dc/dcmitype/StillImage" />
      </cc:Work>
    </rdf:RDF>
  </metadata>
  <defs
     id="defs8" />
  <sodipodi:namedview
     pagecolor="#ffffff"
     bordercolor="#666666"
     borderopacity="1"
     objecttolerance="10"
     gridtolerance="10"
     guidetolerance="10"
     inkscape:pageopacity="0"
     inkscape:pageshadow="2"
     inkscape:window-width="814"
     inkscape:window-height="480"
     id="namedview6"
     showgrid="true"
     inkscape:zoom="7.375"
     inkscape:cx="8"
     inkscape:cy="8"
     inkscape:window-x="0"
     inkscape:window-y="27"
     inkscape:window-maximized="0"
     inkscape:current-layer="svg2">
    <inkscape:grid
       type="xygrid"
       id="grid2987" />
  </sodipodi:namedview>
  <path
     inkscape:connector-curvature="0"
     style="fill:none;fill-rule:evenodd;stroke:#dc322f;stroke-opacity:1;stroke-width:2;stroke-miterlimit:4;stroke-dasharray:none"
     d="m 4.5937504,3.9374996 c -0.1712794,-0.00132 -0.3695347,0.024364 -0.59375,0.0625 -0.043758,0.3127017 -0.027039,0.5759312 0,0.8125 0.00206,0.075643 -0.00908,0.1468823 0,0.21875 0.029196,0.2310033 0.1144025,0.4567921 0.28125,0.65625 0.055616,0.066486 0.10924,0.1236761 0.1875,0.1875 0.3410085,0.3671617 0.7060187,0.710611 1.0624999,1.0625 l 1.0625,1.0625 c -0.3580665,0.3502823 -0.7060189,0.710611 -1.0625,1.0625 C 5.1773136,9.4167988 4.8150976,9.7629094 4.4687504,10.125 c -0.07392,0.05322 -0.1334196,0.127435 -0.1875,0.1875 -0.063787,0.07085 -0.1156574,0.140023 -0.15625,0.21875 -0.075008,0.145474 -0.1059995,0.305016 -0.125,0.46875 -0.011903,0.102573 -0.031723,0.206344 -0.03125,0.3125 -0.0027,0.04931 -8.36e-4,0.10326 0,0.15625 0.00656,0.181282 0.028344,0.354304 0.03125,0.53125 0.1795633,0.02513 0.3481027,0.02889 0.5,0.03125 0.028387,4.4e-4 0.066186,3.87e-4 0.09375,0 0.07047,-9.9e-4 0.1218852,-0.02473 0.1875,-0.03125 0.010678,-0.0011 0.020689,0.0012 0.03125,0 0.32105,-0.0111 0.6243423,-0.05557 0.8749999,-0.28125 0.066486,-0.05562 0.1236761,-0.10924 0.1875,-0.1875 l 2.125,-2.1250004 L 10.125,11.53125 c 0.05322,0.07392 0.127435,0.13342 0.1875,0.1875 0.07085,0.06379 0.140023,0.115657 0.21875,0.15625 0.139139,0.07329 0.283498,0.105536 0.4375,0.125 0.173066,0.02295 0.349854,0.03859 0.53125,0.03125 C 11.6519,12.02885 11.820433,12.02515 12,12 12.05596,11.671021 12.05972,11.413957 12.03125,11.1875 12.02828,11.10096 12.012943,11.021021 12,10.9375 11.953381,10.636656 11.830738,10.340613 11.53125,10.125 11.190241,9.7578379 10.825231,9.4143886 10.46875,9.0624996 l -1.0624997,-1.0625 2.1249997,-2.125 c 0.07826,-0.063824 0.131884,-0.121014 0.1875,-0.1875 0.06206,-0.071707 0.116586,-0.1434512 0.15625,-0.21875 0.06845,-0.1299506 0.104348,-0.2634316 0.125,-0.40625 0.0024,-0.00973 -0.0023,-0.021429 0,-0.03125 0.06765,-0.2900403 0.05769,-0.6189677 0,-1.03125 -0.328957,-0.055951 -0.586054,-0.059713 -0.8125,-0.03125 -0.08085,0.011633 -0.175739,0.00888 -0.25,0.03125 -0.03097,0.00873 -0.06357,0.020703 -0.09375,0.03125 -0.265855,0.056929 -0.524795,0.1680937 -0.71875,0.4375 -0.3671613,0.341009 -0.7106107,0.7060189 -1.0624997,1.0625 -0.351889,0.3564812 -0.7122177,0.7044337 -1.0625,1.0625 -0.340629,-0.3575692 -0.6822798,-0.7136482 -1.03125,-1.0625 -0.00517,-0.00524 -0.026076,0.00524 -0.03125,0 -0.351889,-0.3564811 -0.6953383,-0.721491 -1.0625,-1.0625 -0.053218,-0.073921 -0.127435,-0.1334195 -0.1875,-0.1875 -0.041643,-0.037494 -0.080508,-0.06461 -0.125,-0.09375 -0.02367,-0.015503 -0.038102,-0.049151 -0.0625,-0.0625 -0.00919,-0.00484 -0.022004,0.00455 -0.03125,0 -0.1273654,-0.065671 -0.2643522,-0.1036965 -0.40625,-0.125 -0.01925,-0.00243 -0.042988,0.00185 -0.0625,0 -0.1249164,-0.030217 -0.2574088,-0.061352 -0.4062499,-0.0625 z"
     id="path4-3" />
  <path
     inkscape:connector-curvature="0"
     style="fill:none;stroke:#000000;stroke-width:2;stroke-miterlimit:4;stroke-opacity:1;stroke-dasharray:none;opacity:0.2"
     d="m 4.5937504,3.9374996 c -0.1712794,-0.00132 -0.3695347,0.024364 -0.59375,0.0625 -0.043758,0.3127017 -0.027039,0.5759312 0,0.8125 0.00206,0.075643 -0.00908,0.1468823 0,0.21875 0.029196,0.2310033 0.1144025,0.4567921 0.28125,0.65625 0.055616,0.066486 0.10924,0.1236761 0.1875,0.1875 0.3410085,0.3671617 0.7060187,0.710611 1.0624999,1.0625 l 1.0625,1.0625 c -0.3580665,0.3502823 -0.7060189,0.710611 -1.0625,1.0625 C 5.1773136,9.4167988 4.8150976,9.7629094 4.4687504,10.125 c -0.07392,0.05322 -0.1334196,0.127435 -0.1875,0.1875 -0.063787,0.07085 -0.1156574,0.140023 -0.15625,0.21875 -0.075008,0.145474 -0.1059995,0.305016 -0.125,0.46875 -0.011903,0.102573 -0.031723,0.206344 -0.03125,0.3125 -0.0027,0.04931 -8.36e-4,0.10326 0,0.15625 0.00656,0.181282 0.028344,0.354304 0.03125,0.53125 0.1795633,0.02513 0.3481027,0.02889 0.5,0.03125 0.028387,4.4e-4 0.066186,3.87e-4 0.09375,0 0.07047,-9.9e-4 0.1218852,-0.02473 0.1875,-0.03125 0.010678,-0.0011 0.020689,0.0012 0.03125,0 0.32105,-0.0111 0.6243423,-0.05557 0.8749999,-0.28125 0.066486,-0.05562 0.1236761,-0.10924 0.1875,-0.1875 l 2.125,-2.1250004 L 10.125,11.53125 c 0.05322,0.07392 0.127435,0.13342 0.1875,0.1875 0.07085,0.06379 0.140023,0.115657 0.21875,0.15625 0.139139,0.07329 0.283498,0.105536 0.4375,0.125 0.173066,0.02295 0.349854,0.03859 0.53125,0.03125 C 11.6519,12.02885 11.820433,12.02515 12,12 12.05596,11.671021 12.05972,11.413957 12.03125,11.1875 12.02828,11.10096 12.012943,11.021021 12,10.9375 11.953381,10.636656 11.830738,10.340613 11.53125,10.125 11.190241,9.7578379 10.825231,9.4143886 10.46875,9.0624996 l -1.0624997,-1.0625 2.1249997,-2.125 c 0.07826,-0.063824 0.131884,-0.121014 0.1875,-0.1875 0.06206,-0.071707 0.116586,-0.1434512 0.15625,-0.21875 0.06845,-0.1299506 0.104348,-0.2634316 0.125,-0.40625 0.0024,-0.00973 -0.0023,-0.021429 0,-0.03125 0.06765,-0.2900403 0.05769,-0.6189677 0,-1.03125 -0.328957,-0.055951 -0.586054,-0.059713 -0.8125,-0.03125 -0.08085,0.011633 -0.175739,0.00888 -0.25,0.03125 -0.03097,0.00873 -0.06357,0.020703 -0.09375,0.03125 -0.265855,0.056929 -0.524795,0.1680937 -0.71875,0.4375 -0.3671613,0.341009 -0.7106107,0.7060189 -1.0624997,1.0625 -0.351889,0.3564812 -0.7122177,0.7044337 -1.0625,1.0625 -0.340629,-0.3575692 -0.6822798,-0.7136482 -1.03125,-1.0625 -0.00517,-0.00524 -0.026076,0.00524 -0.03125,0 -0.351889,-0.3564811 -0.6953383,-0.721491 -1.0625,-1.0625 -0.053218,-0.073921 -0.127435,-0.1334195 -0.1875,-0.1875 -0.041643,-0.037494 -0.080508,-0.06461 -0.125,-0.09375 -0.02367,-0.015503 -0.038102,-0.049151 -0.0625,-0.0625 -0.00919,-0.00484 -0.022004,0.00455 -0.03125,0 -0.1273654,-0.065671 -0.2643522,-0.1036965 -0.40625,-0.125 -0.01925,-0.00243 -0.042988,0.00185 -0.0625,0 -0.1249164,-0.030217 -0.2574088,-0.061352 -0.4062499,-0.0625 z"
     id="path4-3-4" />
  <path
     style="fill:#dc322f;fill-rule:evenodd"
     d="M 4.59375 3.9375 C 4.4224706 3.9361794 4.2242153 3.9618643 4 4 C 3.9562425 4.3127017 3.972961 4.5759312 4 4.8125 C 4.0020553 4.888143 3.9909169 4.9593823 4 5.03125 C 4.0291956 5.2622533 4.1144025 5.4880421 4.28125 5.6875 C 4.3368658 5.753986 4.39049 5.8111761 4.46875 5.875 C 4.8097585 6.2421617 5.1747688 6.585611 5.53125 6.9375 L 6.59375 8 C 6.2356835 8.3502823 5.8877311 8.710611 5.53125 9.0625 C 5.1773133 9.4167992 4.8150972 9.7629098 4.46875 10.125 C 4.3948295 10.178218 4.3353304 10.252435 4.28125 10.3125 C 4.2174628 10.383346 4.1655926 10.452523 4.125 10.53125 C 4.0499919 10.676724 4.0190005 10.836266 4 11 C 3.988097 11.102573 3.9682771 11.206344 3.96875 11.3125 C 3.9660508 11.361807 3.967914 11.41576 3.96875 11.46875 C 3.9753139 11.650032 3.997094 11.823054 4 12 C 4.1795633 12.025127 4.3481027 12.028894 4.5 12.03125 C 4.5283874 12.03169 4.5661857 12.031637 4.59375 12.03125 C 4.66422 12.03026 4.7156352 12.006516 4.78125 12 C 4.7919281 11.998942 4.8019389 12.001207 4.8125 12 C 5.1335501 11.988896 5.4368424 11.944433 5.6875 11.71875 C 5.753986 11.663134 5.8111761 11.60951 5.875 11.53125 L 8 9.40625 L 10.125 11.53125 C 10.178218 11.60517 10.252435 11.66467 10.3125 11.71875 C 10.383346 11.782537 10.452523 11.834407 10.53125 11.875 C 10.670389 11.948293 10.814748 11.980536 10.96875 12 C 11.141816 12.022953 11.318604 12.038594 11.5 12.03125 C 11.6519 12.028895 11.820433 12.025128 12 12 C 12.055955 11.671021 12.05972 11.413957 12.03125 11.1875 C 12.028279 11.10096 12.012943 11.021021 12 10.9375 C 11.953381 10.636656 11.830738 10.340613 11.53125 10.125 C 11.190241 9.7578383 10.825231 9.414389 10.46875 9.0625 L 9.40625 8 L 11.53125 5.875 C 11.60951 5.8111761 11.663134 5.753986 11.71875 5.6875 C 11.780814 5.6157932 11.835336 5.5440488 11.875 5.46875 C 11.943453 5.3387994 11.979348 5.2053184 12 5.0625 C 12.002445 5.0527698 11.997709 5.0410708 12 5.03125 C 12.06765 4.7412097 12.057693 4.4122823 12 4 C 11.671043 3.9440492 11.413946 3.9402872 11.1875 3.96875 C 11.106646 3.9803827 11.011761 3.9776323 10.9375 4 C 10.90653 4.0087252 10.873934 4.0207033 10.84375 4.03125 C 10.577895 4.0881789 10.318955 4.1993437 10.125 4.46875 C 9.7578384 4.809759 9.414389 5.1747689 9.0625 5.53125 C 8.710611 5.8877312 8.3502823 6.2356837 8 6.59375 C 7.659371 6.2361808 7.3177202 5.8801018 6.96875 5.53125 C 6.9635773 5.5260098 6.9426745 5.5364883 6.9375 5.53125 C 6.585611 5.1747689 6.2421617 4.809759 5.875 4.46875 C 5.8217819 4.3948294 5.747565 4.3353305 5.6875 4.28125 C 5.6458573 4.2437563 5.6069924 4.2166403 5.5625 4.1875 C 5.5388298 4.1719972 5.5243984 4.1383485 5.5 4.125 C 5.4908116 4.1201599 5.4779964 4.1295455 5.46875 4.125 C 5.3413846 4.059329 5.2043978 4.0213035 5.0625 4 C 5.0432497 3.997567 5.0195121 4.0018503 5 4 C 4.8750835 3.9697827 4.7425911 3.9386476 4.59375 3.9375 z "
     id="path4" />
</svg>
